<svg xmlns="http://www.w3.org/2000/svg" viewBox="0 0 64 64" fill="none">
  <defs>
    <linearGradient id="g" x1="12" y1="10" x2="52" y2="54" gradientUnits="userSpaceOnUse">
      <stop stop-color="#FFB15A" />
      <stop offset="1" stop-color="#FF7A5C" />
    </linearGradient>
    <linearGradient id="g2" x1="18" y1="16" x2="46" y2="48" gradientUnits="userSpaceOnUse">
      <stop stop-color="#FFF6EE" />
      <stop offset="1" stop-color="#FFD7B1" />
    </linearGradient>
  </defs>
  <rect x="6" y="6" width="52" height="52" rx="16" fill="#0A0E1A" />
  <rect x="10" y="10" width="44" height="44" rx="12" fill="url(#g)" opacity="0.18" />
  <path d="M20 14h16l8 8v28a4 4 0 0 1-4 4H20a4 4 0 0 1-4-4V18a4 4 0 0 1 4-4Z" fill="url(#g2)" />
  <path d="M36 14v8h8" stroke="#0A0E1A" stroke-width="3" stroke-linejoin="round" />
  <path d="M24 28h16M24 36h12M24 44h9" stroke="#0A0E1A" stroke-width="3" stroke-linecap="round" />
  <path d="m23 34 4 4 8-8" stroke="#FF7A5C" stroke-width="3.5" stroke-linecap="round" stroke-linejoin="round" />
</svg>